<mxfile host="app.diagrams.net" modified="2023-10-23T12:33:21.949Z" agent="Mozilla/5.0 (Windows NT 10.0; Win64; x64) AppleWebKit/537.36 (KHTML, like Gecko) Chrome/118.0.0.0 Safari/537.36 Edg/118.0.2088.61" etag="_UpW0xMwqHJ7wN_AtWSV" version="22.0.6" type="github">
  <diagram name="Page-1" id="13e1069c-82ec-6db2-03f1-153e76fe0fe0">
    <mxGraphModel dx="1179" dy="782" grid="1" gridSize="10" guides="1" tooltips="1" connect="1" arrows="1" fold="1" page="1" pageScale="1" pageWidth="1100" pageHeight="850" background="none" math="0" shadow="0">
      <root>
        <mxCell id="0" />
        <mxCell id="1" parent="0" />
        <mxCell id="7baba1c4bc27f4b0-2" value="recv" style="shape=umlLifeline;perimeter=lifelinePerimeter;whiteSpace=wrap;html=1;container=1;collapsible=0;recursiveResize=0;outlineConnect=0;rounded=1;shadow=0;comic=0;labelBackgroundColor=none;strokeWidth=1;fontFamily=Verdana;fontSize=12;align=center;" parent="1" vertex="1">
          <mxGeometry x="406" y="80" width="100" height="580" as="geometry" />
        </mxCell>
        <mxCell id="7baba1c4bc27f4b0-10" value="" style="html=1;points=[];perimeter=orthogonalPerimeter;rounded=0;shadow=0;comic=0;labelBackgroundColor=none;strokeWidth=1;fontFamily=Verdana;fontSize=12;align=center;" parent="7baba1c4bc27f4b0-2" vertex="1">
          <mxGeometry x="45" y="135" width="10" height="230" as="geometry" />
        </mxCell>
        <mxCell id="7baba1c4bc27f4b0-3" value="view" style="shape=umlLifeline;perimeter=lifelinePerimeter;whiteSpace=wrap;html=1;container=1;collapsible=0;recursiveResize=0;outlineConnect=0;rounded=1;shadow=0;comic=0;labelBackgroundColor=none;strokeWidth=1;fontFamily=Verdana;fontSize=12;align=center;" parent="1" vertex="1">
          <mxGeometry x="587" y="81" width="100" height="580" as="geometry" />
        </mxCell>
        <mxCell id="7baba1c4bc27f4b0-13" value="" style="html=1;points=[];perimeter=orthogonalPerimeter;rounded=0;shadow=0;comic=0;labelBackgroundColor=none;strokeWidth=1;fontFamily=Verdana;fontSize=12;align=center;" parent="7baba1c4bc27f4b0-3" vertex="1">
          <mxGeometry x="45" y="180" width="10" height="200" as="geometry" />
        </mxCell>
        <mxCell id="7baba1c4bc27f4b0-4" value="KANZI" style="shape=umlLifeline;perimeter=lifelinePerimeter;whiteSpace=wrap;html=1;container=1;collapsible=0;recursiveResize=0;outlineConnect=0;rounded=1;shadow=0;comic=0;labelBackgroundColor=none;strokeWidth=1;fontFamily=Verdana;fontSize=12;align=center;" parent="1" vertex="1">
          <mxGeometry x="768" y="80" width="100" height="580" as="geometry" />
        </mxCell>
        <mxCell id="7baba1c4bc27f4b0-8" value="3rd qsapi" style="shape=umlLifeline;perimeter=lifelinePerimeter;whiteSpace=wrap;html=1;container=1;collapsible=0;recursiveResize=0;outlineConnect=0;rounded=1;shadow=0;comic=0;labelBackgroundColor=none;strokeWidth=1;fontFamily=Verdana;fontSize=12;align=center;" parent="1" vertex="1">
          <mxGeometry x="225" y="80" width="100" height="580" as="geometry" />
        </mxCell>
        <mxCell id="7baba1c4bc27f4b0-9" value="" style="html=1;points=[];perimeter=orthogonalPerimeter;rounded=0;shadow=0;comic=0;labelBackgroundColor=none;strokeWidth=1;fontFamily=Verdana;fontSize=12;align=center;" parent="7baba1c4bc27f4b0-8" vertex="1">
          <mxGeometry x="45" y="114" width="10" height="306" as="geometry" />
        </mxCell>
        <mxCell id="rQlBkAVt-6RhBXm4ACiW-3" value="QS_MSG_VI_CC_F&lt;br style=&quot;border-color: var(--border-color);&quot;&gt;_FROM_CENTER_IC" style="html=1;verticalAlign=bottom;endArrow=block;entryX=0;entryY=0;labelBackgroundColor=none;fontFamily=Verdana;fontSize=12;edgeStyle=elbowEdgeStyle;elbow=vertical;" edge="1" parent="7baba1c4bc27f4b0-8">
          <mxGeometry x="-0.0766" y="20" relative="1" as="geometry">
            <mxPoint x="-135" y="116" as="sourcePoint" />
            <mxPoint x="45" y="116.24000000000001" as="targetPoint" />
            <mxPoint as="offset" />
          </mxGeometry>
        </mxCell>
        <mxCell id="7baba1c4bc27f4b0-16" value="" style="html=1;points=[];perimeter=orthogonalPerimeter;rounded=0;shadow=0;comic=0;labelBackgroundColor=none;strokeWidth=1;fontFamily=Verdana;fontSize=12;align=center;" parent="1" vertex="1">
          <mxGeometry x="813" y="294" width="10" height="196" as="geometry" />
        </mxCell>
        <mxCell id="7baba1c4bc27f4b0-30" value="return" style="html=1;verticalAlign=bottom;endArrow=open;dashed=1;endSize=8;labelBackgroundColor=none;fontFamily=Verdana;fontSize=12;edgeStyle=elbowEdgeStyle;elbow=vertical;exitX=0.502;exitY=0.762;exitDx=0;exitDy=0;exitPerimeter=0;" parent="1" source="7baba1c4bc27f4b0-4" target="7baba1c4bc27f4b0-9" edge="1">
          <mxGeometry relative="1" as="geometry">
            <mxPoint x="925" y="626" as="targetPoint" />
            <Array as="points">
              <mxPoint x="810" y="490" />
            </Array>
            <mxPoint x="810" y="600" as="sourcePoint" />
          </mxGeometry>
        </mxCell>
        <mxCell id="7baba1c4bc27f4b0-34" value="" style="html=1;points=[];perimeter=orthogonalPerimeter;rounded=0;shadow=0;comic=0;labelBackgroundColor=none;strokeWidth=1;fontFamily=Verdana;fontSize=12;align=center;" parent="1" vertex="1">
          <mxGeometry x="823" y="381" width="10" height="70" as="geometry" />
        </mxCell>
        <mxCell id="7baba1c4bc27f4b0-35" value="&lt;p class=&quot;MsoNormal&quot;&gt;SourceType&lt;/p&gt;" style="html=1;verticalAlign=bottom;endArrow=block;labelBackgroundColor=none;fontFamily=Verdana;fontSize=12;elbow=vertical;edgeStyle=orthogonalEdgeStyle;curved=1;entryX=1;entryY=0.286;entryPerimeter=0;exitX=1.038;exitY=0.345;exitPerimeter=0;" parent="1" source="7baba1c4bc27f4b0-16" target="7baba1c4bc27f4b0-34" edge="1">
          <mxGeometry relative="1" as="geometry">
            <mxPoint x="698" y="311" as="sourcePoint" />
            <mxPoint x="828" y="311" as="targetPoint" />
            <Array as="points">
              <mxPoint x="883" y="363" />
              <mxPoint x="883" y="401" />
            </Array>
          </mxGeometry>
        </mxCell>
        <mxCell id="7baba1c4bc27f4b0-36" value="画面显示" style="html=1;verticalAlign=bottom;endArrow=block;labelBackgroundColor=none;fontFamily=Verdana;fontSize=12;elbow=vertical;edgeStyle=orthogonalEdgeStyle;curved=1;exitX=1.066;exitY=0.713;exitPerimeter=0;" parent="1" source="7baba1c4bc27f4b0-34" edge="1">
          <mxGeometry relative="1" as="geometry">
            <mxPoint x="843.3333333333333" y="431" as="sourcePoint" />
            <mxPoint x="828" y="470" as="targetPoint" />
            <Array as="points">
              <mxPoint x="883" y="431" />
              <mxPoint x="883" y="470" />
            </Array>
          </mxGeometry>
        </mxCell>
        <mxCell id="rQlBkAVt-6RhBXm4ACiW-6" value="cb_QS_MSG_VI_CC_F&lt;br&gt;_FROM_CENTER_IC" style="html=1;verticalAlign=bottom;endArrow=block;labelBackgroundColor=none;fontFamily=Verdana;fontSize=12;edgeStyle=elbowEdgeStyle;elbow=vertical;exitX=1.171;exitY=0.074;exitDx=0;exitDy=0;exitPerimeter=0;" edge="1" parent="1" source="7baba1c4bc27f4b0-9">
          <mxGeometry x="-0.0766" y="20" relative="1" as="geometry">
            <mxPoint x="248" y="225" as="sourcePoint" />
            <mxPoint x="450" y="217" as="targetPoint" />
            <mxPoint as="offset" />
          </mxGeometry>
        </mxCell>
        <mxCell id="rQlBkAVt-6RhBXm4ACiW-7" value="GUA_MSG_VIEW_&lt;br&gt;CATALOG_FECMD_JSON" style="html=1;verticalAlign=bottom;endArrow=block;labelBackgroundColor=none;fontFamily=Verdana;fontSize=12;edgeStyle=elbowEdgeStyle;elbow=vertical;exitX=1.171;exitY=0.074;exitDx=0;exitDy=0;exitPerimeter=0;" edge="1" parent="1">
          <mxGeometry x="-0.0766" y="20" relative="1" as="geometry">
            <mxPoint x="463" y="262" as="sourcePoint" />
            <mxPoint x="631" y="261" as="targetPoint" />
            <mxPoint as="offset" />
          </mxGeometry>
        </mxCell>
        <mxCell id="rQlBkAVt-6RhBXm4ACiW-8" value="GUA_FECMD_ID_JSON" style="html=1;verticalAlign=bottom;endArrow=block;labelBackgroundColor=none;fontFamily=Verdana;fontSize=12;edgeStyle=elbowEdgeStyle;elbow=vertical;exitX=1.171;exitY=0.074;exitDx=0;exitDy=0;exitPerimeter=0;" edge="1" parent="1">
          <mxGeometry x="-0.0766" y="20" relative="1" as="geometry">
            <mxPoint x="644" y="295.06" as="sourcePoint" />
            <mxPoint x="812" y="294.06" as="targetPoint" />
            <mxPoint as="offset" />
          </mxGeometry>
        </mxCell>
        <mxCell id="rQlBkAVt-6RhBXm4ACiW-9" value="recv" style="shape=umlLifeline;perimeter=lifelinePerimeter;whiteSpace=wrap;html=1;container=1;collapsible=0;recursiveResize=0;outlineConnect=0;rounded=1;shadow=0;comic=0;labelBackgroundColor=none;strokeWidth=1;fontFamily=Verdana;fontSize=12;align=center;" vertex="1" parent="1">
          <mxGeometry x="363" y="880" width="100" height="580" as="geometry" />
        </mxCell>
        <mxCell id="rQlBkAVt-6RhBXm4ACiW-10" value="" style="html=1;points=[];perimeter=orthogonalPerimeter;rounded=0;shadow=0;comic=0;labelBackgroundColor=none;strokeWidth=1;fontFamily=Verdana;fontSize=12;align=center;" vertex="1" parent="rQlBkAVt-6RhBXm4ACiW-9">
          <mxGeometry x="45" y="137" width="10" height="230" as="geometry" />
        </mxCell>
        <mxCell id="rQlBkAVt-6RhBXm4ACiW-11" value="profl" style="shape=umlLifeline;perimeter=lifelinePerimeter;whiteSpace=wrap;html=1;container=1;collapsible=0;recursiveResize=0;outlineConnect=0;rounded=1;shadow=0;comic=0;labelBackgroundColor=none;strokeWidth=1;fontFamily=Verdana;fontSize=12;align=center;" vertex="1" parent="1">
          <mxGeometry x="544" y="881" width="100" height="580" as="geometry" />
        </mxCell>
        <mxCell id="rQlBkAVt-6RhBXm4ACiW-12" value="" style="html=1;points=[];perimeter=orthogonalPerimeter;rounded=0;shadow=0;comic=0;labelBackgroundColor=none;strokeWidth=1;fontFamily=Verdana;fontSize=12;align=center;" vertex="1" parent="rQlBkAVt-6RhBXm4ACiW-11">
          <mxGeometry x="45" y="180" width="10" height="200" as="geometry" />
        </mxCell>
        <mxCell id="rQlBkAVt-6RhBXm4ACiW-13" value="view" style="shape=umlLifeline;perimeter=lifelinePerimeter;whiteSpace=wrap;html=1;container=1;collapsible=0;recursiveResize=0;outlineConnect=0;rounded=1;shadow=0;comic=0;labelBackgroundColor=none;strokeWidth=1;fontFamily=Verdana;fontSize=12;align=center;" vertex="1" parent="1">
          <mxGeometry x="725" y="880" width="100" height="580" as="geometry" />
        </mxCell>
        <mxCell id="rQlBkAVt-6RhBXm4ACiW-14" value="3rd qsapi" style="shape=umlLifeline;perimeter=lifelinePerimeter;whiteSpace=wrap;html=1;container=1;collapsible=0;recursiveResize=0;outlineConnect=0;rounded=1;shadow=0;comic=0;labelBackgroundColor=none;strokeWidth=1;fontFamily=Verdana;fontSize=12;align=center;" vertex="1" parent="1">
          <mxGeometry x="166" y="880" width="100" height="580" as="geometry" />
        </mxCell>
        <mxCell id="rQlBkAVt-6RhBXm4ACiW-15" value="" style="html=1;points=[];perimeter=orthogonalPerimeter;rounded=0;shadow=0;comic=0;labelBackgroundColor=none;strokeWidth=1;fontFamily=Verdana;fontSize=12;align=center;" vertex="1" parent="rQlBkAVt-6RhBXm4ACiW-14">
          <mxGeometry x="45" y="114" width="10" height="306" as="geometry" />
        </mxCell>
        <mxCell id="rQlBkAVt-6RhBXm4ACiW-16" value="QS_MSG_VI_CC_F_FROM&lt;br&gt;_CENTER_ThemeMode" style="html=1;verticalAlign=bottom;endArrow=block;entryX=0;entryY=0;labelBackgroundColor=none;fontFamily=Verdana;fontSize=12;edgeStyle=elbowEdgeStyle;elbow=vertical;" edge="1" parent="rQlBkAVt-6RhBXm4ACiW-14">
          <mxGeometry x="-0.0766" y="20" relative="1" as="geometry">
            <mxPoint x="-135" y="116" as="sourcePoint" />
            <mxPoint x="45" y="116.24000000000001" as="targetPoint" />
            <mxPoint as="offset" />
          </mxGeometry>
        </mxCell>
        <mxCell id="rQlBkAVt-6RhBXm4ACiW-17" value="" style="html=1;points=[];perimeter=orthogonalPerimeter;rounded=0;shadow=0;comic=0;labelBackgroundColor=none;strokeWidth=1;fontFamily=Verdana;fontSize=12;align=center;" vertex="1" parent="1">
          <mxGeometry x="770" y="1094" width="10" height="196" as="geometry" />
        </mxCell>
        <mxCell id="rQlBkAVt-6RhBXm4ACiW-18" value="return" style="html=1;verticalAlign=bottom;endArrow=open;dashed=1;endSize=8;labelBackgroundColor=none;fontFamily=Verdana;fontSize=12;edgeStyle=elbowEdgeStyle;elbow=vertical;exitX=0.502;exitY=0.762;exitDx=0;exitDy=0;exitPerimeter=0;" edge="1" parent="1" source="rQlBkAVt-6RhBXm4ACiW-13" target="rQlBkAVt-6RhBXm4ACiW-15">
          <mxGeometry relative="1" as="geometry">
            <mxPoint x="866" y="1426" as="targetPoint" />
            <Array as="points">
              <mxPoint x="751" y="1290" />
            </Array>
            <mxPoint x="751" y="1400" as="sourcePoint" />
          </mxGeometry>
        </mxCell>
        <mxCell id="rQlBkAVt-6RhBXm4ACiW-19" value="" style="html=1;points=[];perimeter=orthogonalPerimeter;rounded=0;shadow=0;comic=0;labelBackgroundColor=none;strokeWidth=1;fontFamily=Verdana;fontSize=12;align=center;" vertex="1" parent="1">
          <mxGeometry x="780" y="1181" width="10" height="70" as="geometry" />
        </mxCell>
        <mxCell id="rQlBkAVt-6RhBXm4ACiW-20" value="&lt;p class=&quot;MsoNormal&quot;&gt;SourceType&lt;/p&gt;" style="html=1;verticalAlign=bottom;endArrow=block;labelBackgroundColor=none;fontFamily=Verdana;fontSize=12;elbow=vertical;edgeStyle=orthogonalEdgeStyle;curved=1;entryX=1;entryY=0.286;entryPerimeter=0;exitX=1.038;exitY=0.345;exitPerimeter=0;" edge="1" parent="1" source="rQlBkAVt-6RhBXm4ACiW-17" target="rQlBkAVt-6RhBXm4ACiW-19">
          <mxGeometry relative="1" as="geometry">
            <mxPoint x="655" y="1111" as="sourcePoint" />
            <mxPoint x="785" y="1111" as="targetPoint" />
            <Array as="points">
              <mxPoint x="840" y="1163" />
              <mxPoint x="840" y="1201" />
            </Array>
          </mxGeometry>
        </mxCell>
        <mxCell id="rQlBkAVt-6RhBXm4ACiW-21" value="画面显示" style="html=1;verticalAlign=bottom;endArrow=block;labelBackgroundColor=none;fontFamily=Verdana;fontSize=12;elbow=vertical;edgeStyle=orthogonalEdgeStyle;curved=1;exitX=1.066;exitY=0.713;exitPerimeter=0;" edge="1" parent="1" source="rQlBkAVt-6RhBXm4ACiW-19">
          <mxGeometry relative="1" as="geometry">
            <mxPoint x="800.3333333333333" y="1231" as="sourcePoint" />
            <mxPoint x="785" y="1270" as="targetPoint" />
            <Array as="points">
              <mxPoint x="840" y="1231" />
              <mxPoint x="840" y="1270" />
            </Array>
          </mxGeometry>
        </mxCell>
        <mxCell id="rQlBkAVt-6RhBXm4ACiW-22" value="cb_QS_MSG_VI_CC_F_FROM&lt;br&gt;_CENTER_ThemeMode" style="html=1;verticalAlign=bottom;endArrow=block;labelBackgroundColor=none;fontFamily=Verdana;fontSize=12;edgeStyle=elbowEdgeStyle;elbow=vertical;exitX=1.171;exitY=0.074;exitDx=0;exitDy=0;exitPerimeter=0;entryX=0.359;entryY=0.001;entryDx=0;entryDy=0;entryPerimeter=0;" edge="1" parent="1" source="rQlBkAVt-6RhBXm4ACiW-15" target="rQlBkAVt-6RhBXm4ACiW-10">
          <mxGeometry x="-0.0766" y="20" relative="1" as="geometry">
            <mxPoint x="189" y="1025" as="sourcePoint" />
            <mxPoint x="400" y="1020" as="targetPoint" />
            <mxPoint as="offset" />
          </mxGeometry>
        </mxCell>
        <mxCell id="rQlBkAVt-6RhBXm4ACiW-23" value="GUA_MSG_PROFL_&lt;br&gt;CATALOG_THEME" style="html=1;verticalAlign=bottom;endArrow=block;labelBackgroundColor=none;fontFamily=Verdana;fontSize=12;edgeStyle=elbowEdgeStyle;elbow=vertical;exitX=1.171;exitY=0.074;exitDx=0;exitDy=0;exitPerimeter=0;" edge="1" parent="1">
          <mxGeometry x="-0.0766" y="20" relative="1" as="geometry">
            <mxPoint x="420" y="1062" as="sourcePoint" />
            <mxPoint x="588" y="1061" as="targetPoint" />
            <mxPoint as="offset" />
          </mxGeometry>
        </mxCell>
        <mxCell id="rQlBkAVt-6RhBXm4ACiW-24" value="GUA_MSG_VIEW_&lt;br&gt;CATALOG_FECMD_THEME" style="html=1;verticalAlign=bottom;endArrow=block;labelBackgroundColor=none;fontFamily=Verdana;fontSize=12;edgeStyle=elbowEdgeStyle;elbow=vertical;exitX=1.171;exitY=0.074;exitDx=0;exitDy=0;exitPerimeter=0;" edge="1" parent="1">
          <mxGeometry x="-0.0766" y="20" relative="1" as="geometry">
            <mxPoint x="601" y="1095.06" as="sourcePoint" />
            <mxPoint x="769" y="1094.06" as="targetPoint" />
            <mxPoint as="offset" />
          </mxGeometry>
        </mxCell>
        <mxCell id="rQlBkAVt-6RhBXm4ACiW-25" value="KANZI" style="shape=umlLifeline;perimeter=lifelinePerimeter;whiteSpace=wrap;html=1;container=1;collapsible=0;recursiveResize=0;outlineConnect=0;rounded=1;shadow=0;comic=0;labelBackgroundColor=none;strokeWidth=1;fontFamily=Verdana;fontSize=12;align=center;" vertex="1" parent="1">
          <mxGeometry x="903" y="880" width="100" height="580" as="geometry" />
        </mxCell>
        <mxCell id="rQlBkAVt-6RhBXm4ACiW-26" value="" style="html=1;points=[];perimeter=orthogonalPerimeter;rounded=0;shadow=0;comic=0;labelBackgroundColor=none;strokeWidth=1;fontFamily=Verdana;fontSize=12;align=center;" vertex="1" parent="1">
          <mxGeometry x="948" y="1143" width="10" height="196" as="geometry" />
        </mxCell>
        <mxCell id="rQlBkAVt-6RhBXm4ACiW-27" value="" style="html=1;points=[];perimeter=orthogonalPerimeter;rounded=0;shadow=0;comic=0;labelBackgroundColor=none;strokeWidth=1;fontFamily=Verdana;fontSize=12;align=center;" vertex="1" parent="1">
          <mxGeometry x="958" y="1230" width="10" height="70" as="geometry" />
        </mxCell>
        <mxCell id="rQlBkAVt-6RhBXm4ACiW-28" value="&lt;p class=&quot;MsoNormal&quot;&gt;ID&lt;/p&gt;" style="html=1;verticalAlign=bottom;endArrow=block;labelBackgroundColor=none;fontFamily=Verdana;fontSize=12;elbow=vertical;edgeStyle=orthogonalEdgeStyle;curved=1;entryX=1;entryY=0.286;entryPerimeter=0;exitX=1.038;exitY=0.345;exitPerimeter=0;" edge="1" parent="1" source="rQlBkAVt-6RhBXm4ACiW-26" target="rQlBkAVt-6RhBXm4ACiW-27">
          <mxGeometry relative="1" as="geometry">
            <mxPoint x="833" y="1160" as="sourcePoint" />
            <mxPoint x="963" y="1160" as="targetPoint" />
            <Array as="points">
              <mxPoint x="1018" y="1212" />
              <mxPoint x="1018" y="1250" />
            </Array>
          </mxGeometry>
        </mxCell>
        <mxCell id="rQlBkAVt-6RhBXm4ACiW-29" value="画面显示" style="html=1;verticalAlign=bottom;endArrow=block;labelBackgroundColor=none;fontFamily=Verdana;fontSize=12;elbow=vertical;edgeStyle=orthogonalEdgeStyle;curved=1;exitX=1.066;exitY=0.713;exitPerimeter=0;" edge="1" parent="1" source="rQlBkAVt-6RhBXm4ACiW-27">
          <mxGeometry relative="1" as="geometry">
            <mxPoint x="978.3333333333333" y="1280" as="sourcePoint" />
            <mxPoint x="963" y="1319" as="targetPoint" />
            <Array as="points">
              <mxPoint x="1018" y="1280" />
              <mxPoint x="1018" y="1319" />
            </Array>
          </mxGeometry>
        </mxCell>
        <mxCell id="rQlBkAVt-6RhBXm4ACiW-30" value="GUA_FECMD_ID_THEME" style="html=1;verticalAlign=bottom;endArrow=block;labelBackgroundColor=none;fontFamily=Verdana;fontSize=12;edgeStyle=elbowEdgeStyle;elbow=vertical;exitX=1.171;exitY=0.074;exitDx=0;exitDy=0;exitPerimeter=0;" edge="1" parent="1">
          <mxGeometry x="-0.0766" y="20" relative="1" as="geometry">
            <mxPoint x="780" y="1144" as="sourcePoint" />
            <mxPoint x="948" y="1143" as="targetPoint" />
            <mxPoint as="offset" />
          </mxGeometry>
        </mxCell>
        <mxCell id="rQlBkAVt-6RhBXm4ACiW-31" value="profl_proc_theme" style="text;whiteSpace=wrap;" vertex="1" parent="1">
          <mxGeometry x="638" y="990" width="130" height="40" as="geometry" />
        </mxCell>
        <mxCell id="rQlBkAVt-6RhBXm4ACiW-32" value="gua_profl_save_theme" style="text;whiteSpace=wrap;" vertex="1" parent="1">
          <mxGeometry x="225" y="1230" width="160" height="40" as="geometry" />
        </mxCell>
        <mxCell id="rQlBkAVt-6RhBXm4ACiW-33" value="profl_storg_save_theme" style="text;whiteSpace=wrap;" vertex="1" parent="1">
          <mxGeometry x="610" y="1221" width="160" height="40" as="geometry" />
        </mxCell>
      </root>
    </mxGraphModel>
  </diagram>
</mxfile>
